<svg version="1.0" xmlns="http://www.w3.org/2000/svg" width="50.000000pt" height="50.000000pt" viewBox="0 0 200.000000 200.000000" preserveAspectRatio="xMidYMid meet" style="height: 66px;"><g transform="translate(0.000000,200.000000) scale(0.100000,-0.100000)" fill="#ffffff" style="stroke: rgb(255, 255, 255); stroke-width: 30; cursor: pointer;"><path d="M1343 1401 c-23 -11 -49 -30 -58 -44 -13 -21 -22 -24 -53 -20 -28 4
-44 0 -64 -17 -16 -12 -28 -28 -28 -35 0 -7 -12 -23 -27 -35 -39 -30 -52 -58
-53 -109 0 -36 6 -49 34 -77 l34 -34 237 0 237 0 35 35 c33 33 35 39 30 81 -5
50 -24 76 -68 94 -22 10 -29 19 -29 40 0 31 -34 85 -70 112 -39 28 -107 32
-157 9z m153 -42 c35 -32 54 -71 54 -109 0 -23 5 -30 19 -30 10 0 30 -9 45
-21 50 -40 28 -128 -37 -144 -13 -4 -117 -5 -231 -3 l-208 3 -29 33 c-16 18
-29 42 -29 55 0 31 34 84 59 92 12 3 21 14 21 22 0 42 57 66 100 43 16 -9 22
-5 35 20 37 71 144 92 201 39z"></path><path d="M1326 1251 c-42 -43 -43 -70 -1 -31 l25 23 0 -76 c0 -42 5 -79 10
-82 6 -4 10 22 10 69 0 42 3 76 7 76 3 0 14 -7 24 -16 10 -9 24 -14 30 -12 8
3 -1 20 -26 47 l-40 42 -39 -40z"></path><path d="M215 1055 c-5 -2 -22 -6 -38 -9 -32 -8 -102 -68 -121 -105 -53 -103
-8 -239 97 -292 53 -27 153 -23 194 8 26 18 28 26 31 97 l3 76 -71 0 c-53 0
-71 -3 -68 -12 3 -8 26 -14 56 -16 l52 -3 0 -55 c0 -53 -1 -55 -35 -70 -79
-33 -167 -9 -216 59 -116 160 68 367 237 266 29 -18 44 -17 44 2 0 22 -133 66
-165 54z"></path><path d="M814 1026 c-65 -65 -32 -154 63 -171 58 -9 93 -44 93 -91 0 -85 -101
-126 -169 -68 -31 26 -55 25 -45 -1 11 -27 70 -55 115 -55 90 0 153 74 130
151 -14 47 -59 85 -111 94 -43 7 -80 43 -80 77 0 29 45 68 78 68 16 0 41 -9
55 -20 50 -40 66 -17 16 24 -46 39 -101 36 -145 -8z"></path><path d="M1784 1026 c-40 -40 -44 -75 -14 -123 17 -29 65 -53 106 -53 6 0 23
-12 38 -26 86 -87 -48 -208 -142 -129 -43 36 -56 11 -13 -27 25 -22 41 -28 77
-28 87 0 134 43 134 123 0 40 -5 54 -28 77 -16 15 -49 34 -73 41 -49 13 -89
49 -89 80 0 30 44 69 78 69 16 0 41 -10 56 -21 41 -32 56 -9 16 25 -47 39
-102 36 -146 -8z"></path><path d="M514 911 c-99 -45 -114 -172 -29 -251 23 -21 36 -25 90 -25 54 0 67
4 90 25 83 77 71 197 -25 247 -52 28 -72 28 -126 4z m100 -25 c123 -51 87
-226 -46 -226 -40 0 -73 21 -93 60 -33 64 -7 137 59 166 39 17 40 17 80 0z"></path><path d="M1134 910 c-25 -12 -49 -35 -62 -59 -75 -132 66 -273 201 -201 45 24
45 24 43 3 0 -10 6 -18 14 -18 25 0 20 170 -5 214 -43 73 -120 97 -191 61z
m101 -20 c49 -19 75 -58 75 -112 0 -43 -4 -54 -34 -84 -27 -27 -42 -34 -72
-34 -48 1 -79 17 -105 56 -37 57 -11 141 54 169 39 17 48 18 82 5z"></path><path d="M1471 908 c-52 -28 -81 -76 -81 -133 0 -114 130 -184 223 -121 36 24
36 24 39 4 2 -12 9 -23 16 -26 19 -6 17 180 -3 218 -20 38 -64 68 -111 75 -30
5 -49 1 -83 -17z m135 -34 c28 -19 44 -57 44 -105 0 -56 -51 -109 -104 -109
-80 0 -133 58 -123 132 12 88 108 131 183 82z"></path></g></svg>